<svg xmlns="http://www.w3.org/2000/svg" width="444" height="338" viewBox="0 0 444 338" role="img" aria-label="Cubo de Rubik resuelto (desplegado)">
  <title>Cubo de Rubik resuelto</title>
  <rect x="116" y="10" width="106" height="106" rx="6" fill="#0a0a0a"/>
  <rect x="120" y="14" width="30" height="30" rx="4" fill="#ffd500"/>
  <rect x="154" y="14" width="30" height="30" rx="4" fill="#ffd500"/>
  <rect x="188" y="14" width="30" height="30" rx="4" fill="#ffd500"/>
  <rect x="120" y="48" width="30" height="30" rx="4" fill="#ffd500"/>
  <rect x="154" y="48" width="30" height="30" rx="4" fill="#ffd500"/>
  <rect x="188" y="48" width="30" height="30" rx="4" fill="#ffd500"/>
  <rect x="120" y="82" width="30" height="30" rx="4" fill="#ffd500"/>
  <rect x="154" y="82" width="30" height="30" rx="4" fill="#ffd500"/>
  <rect x="188" y="82" width="30" height="30" rx="4" fill="#ffd500"/>
  <rect x="10" y="116" width="106" height="106" rx="6" fill="#0a0a0a"/>
  <rect x="14" y="120" width="30" height="30" rx="4" fill="#b71234"/>
  <rect x="48" y="120" width="30" height="30" rx="4" fill="#b71234"/>
  <rect x="82" y="120" width="30" height="30" rx="4" fill="#b71234"/>
  <rect x="14" y="154" width="30" height="30" rx="4" fill="#b71234"/>
  <rect x="48" y="154" width="30" height="30" rx="4" fill="#b71234"/>
  <rect x="82" y="154" width="30" height="30" rx="4" fill="#b71234"/>
  <rect x="14" y="188" width="30" height="30" rx="4" fill="#b71234"/>
  <rect x="48" y="188" width="30" height="30" rx="4" fill="#b71234"/>
  <rect x="82" y="188" width="30" height="30" rx="4" fill="#b71234"/>
  <rect x="116" y="116" width="106" height="106" rx="6" fill="#0a0a0a"/>
  <rect x="120" y="120" width="30" height="30" rx="4" fill="#009b48"/>
  <rect x="154" y="120" width="30" height="30" rx="4" fill="#009b48"/>
  <rect x="188" y="120" width="30" height="30" rx="4" fill="#009b48"/>
  <rect x="120" y="154" width="30" height="30" rx="4" fill="#009b48"/>
  <rect x="154" y="154" width="30" height="30" rx="4" fill="#009b48"/>
  <rect x="188" y="154" width="30" height="30" rx="4" fill="#009b48"/>
  <rect x="120" y="188" width="30" height="30" rx="4" fill="#009b48"/>
  <rect x="154" y="188" width="30" height="30" rx="4" fill="#009b48"/>
  <rect x="188" y="188" width="30" height="30" rx="4" fill="#009b48"/>
  <rect x="222" y="116" width="106" height="106" rx="6" fill="#0a0a0a"/>
  <rect x="226" y="120" width="30" height="30" rx="4" fill="#ff8a1f"/>
  <rect x="260" y="120" width="30" height="30" rx="4" fill="#ff8a1f"/>
  <rect x="294" y="120" width="30" height="30" rx="4" fill="#ff8a1f"/>
  <rect x="226" y="154" width="30" height="30" rx="4" fill="#ff8a1f"/>
  <rect x="260" y="154" width="30" height="30" rx="4" fill="#ff8a1f"/>
  <rect x="294" y="154" width="30" height="30" rx="4" fill="#ff8a1f"/>
  <rect x="226" y="188" width="30" height="30" rx="4" fill="#ff8a1f"/>
  <rect x="260" y="188" width="30" height="30" rx="4" fill="#ff8a1f"/>
  <rect x="294" y="188" width="30" height="30" rx="4" fill="#ff8a1f"/>
  <rect x="328" y="116" width="106" height="106" rx="6" fill="#0a0a0a"/>
  <rect x="332" y="120" width="30" height="30" rx="4" fill="#0046ad"/>
  <rect x="366" y="120" width="30" height="30" rx="4" fill="#0046ad"/>
  <rect x="400" y="120" width="30" height="30" rx="4" fill="#0046ad"/>
  <rect x="332" y="154" width="30" height="30" rx="4" fill="#0046ad"/>
  <rect x="366" y="154" width="30" height="30" rx="4" fill="#0046ad"/>
  <rect x="400" y="154" width="30" height="30" rx="4" fill="#0046ad"/>
  <rect x="332" y="188" width="30" height="30" rx="4" fill="#0046ad"/>
  <rect x="366" y="188" width="30" height="30" rx="4" fill="#0046ad"/>
  <rect x="400" y="188" width="30" height="30" rx="4" fill="#0046ad"/>
  <rect x="116" y="222" width="106" height="106" rx="6" fill="#0a0a0a"/>
  <rect x="120" y="226" width="30" height="30" rx="4" fill="#ffffff"/>
  <rect x="154" y="226" width="30" height="30" rx="4" fill="#ffffff"/>
  <rect x="188" y="226" width="30" height="30" rx="4" fill="#ffffff"/>
  <rect x="120" y="260" width="30" height="30" rx="4" fill="#ffffff"/>
  <rect x="154" y="260" width="30" height="30" rx="4" fill="#ffffff"/>
  <rect x="188" y="260" width="30" height="30" rx="4" fill="#ffffff"/>
  <rect x="120" y="294" width="30" height="30" rx="4" fill="#ffffff"/>
  <rect x="154" y="294" width="30" height="30" rx="4" fill="#ffffff"/>
  <rect x="188" y="294" width="30" height="30" rx="4" fill="#ffffff"/>
</svg>
