<svg xmlns="http://www.w3.org/2000/svg" width="261.23" height="256.46" viewBox="-130.62 3.77 261.23 256.46" role="img" aria-label="Cubo de Rubik (favicon)">
  <title>Cubo de Rubik</title>
  <polygon points="38.59,5.77 128.62,102.31 0.00,132.00 -90.02,35.46" fill="#0a0a0a"/>
  <polygon points="37.72,8.64 63.63,36.43 26.61,44.98 0.69,17.18" fill="#ffd500"/>
  <polygon points="-5.16,18.53 20.76,46.33 -16.27,54.87 -42.18,27.08" fill="#ffd500"/>
  <polygon points="-48.03,28.43 -22.11,56.22 -59.14,64.77 -85.05,36.98" fill="#ffd500"/>
  <polygon points="67.72,40.82 93.64,68.61 56.61,77.16 30.70,49.36" fill="#ffd500"/>
  <polygon points="24.85,50.71 50.77,78.51 13.74,87.05 -12.17,59.26" fill="#ffd500"/>
  <polygon points="-18.02,60.61 7.90,88.40 -29.13,96.95 -55.05,69.16" fill="#ffd500"/>
  <polygon points="97.73,73.00 123.65,100.79 86.62,109.34 60.71,81.54" fill="#ffd500"/>
  <polygon points="54.86,82.89 80.78,110.69 43.75,119.23 17.83,91.44" fill="#ffd500"/>
  <polygon points="11.99,92.79 37.90,120.58 0.88,129.13 -25.04,101.34" fill="#ffd500"/>
  <polygon points="-90.02,35.46 0.00,132.00 -38.59,258.23 -128.62,161.69" fill="#0a0a0a"/>
  <polygon points="-88.85,40.52 -62.94,68.32 -74.05,104.66 -99.97,76.86" fill="#00327d"/>
  <polygon points="-101.72,82.60 -75.80,110.39 -86.91,146.73 -112.83,118.94" fill="#00327d"/>
  <polygon points="-114.58,124.68 -88.67,152.47 -99.78,188.81 -125.69,161.02" fill="#00327d"/>
  <polygon points="-58.85,72.70 -32.93,100.50 -44.04,136.83 -69.96,109.04" fill="#00327d"/>
  <polygon points="-71.71,114.78 -45.80,142.57 -56.91,178.91 -82.82,151.12" fill="#00327d"/>
  <polygon points="-84.58,156.86 -58.66,184.65 -69.77,220.99 -95.69,193.20" fill="#00327d"/>
  <polygon points="-28.84,104.88 -2.92,132.67 -14.03,169.01 -39.95,141.22" fill="#00327d"/>
  <polygon points="-41.70,146.96 -15.79,174.75 -26.90,211.09 -52.81,183.30" fill="#00327d"/>
  <polygon points="-54.57,189.04 -28.65,216.83 -39.76,253.17 -65.68,225.38" fill="#00327d"/>
  <polygon points="128.62,102.31 0.00,132.00 -38.59,258.23 90.02,228.54" fill="#0a0a0a"/>
  <polygon points="124.82,105.85 87.79,114.40 76.68,150.74 113.71,142.19" fill="#a5102f"/>
  <polygon points="111.95,147.93 74.93,156.48 63.82,192.82 100.84,184.27" fill="#a5102f"/>
  <polygon points="99.09,190.01 62.06,198.55 50.95,234.89 87.98,226.34" fill="#a5102f"/>
  <polygon points="81.94,115.75 44.92,124.30 33.81,160.64 70.83,152.09" fill="#a5102f"/>
  <polygon points="69.08,157.83 32.05,166.37 20.94,202.71 57.97,194.17" fill="#a5102f"/>
  <polygon points="56.22,199.90 19.19,208.45 8.08,244.79 45.11,236.24" fill="#a5102f"/>
  <polygon points="39.07,125.65 2.05,134.19 -9.06,170.53 27.96,161.99" fill="#a5102f"/>
  <polygon points="26.21,167.72 -10.82,176.27 -21.93,212.61 15.10,204.06" fill="#a5102f"/>
  <polygon points="13.34,209.80 -23.68,218.35 -34.79,254.69 2.23,246.14" fill="#a5102f"/>
</svg>
