<svg xmlns="http://www.w3.org/2000/svg" width="252.63" height="288.00" viewBox="-126.32 -12.00 252.63 288.00" role="img" aria-label="Cubo de Rubik resuelto en perspectiva isométrica">
  <title>Cubo de Rubik resuelto (isométrico)</title>
  <polygon points="0.00,0.00 114.32,66.00 0.00,132.00 -114.32,66.00" fill="#0a0a0a"/>
  <polygon points="0.00,3.00 32.91,22.00 0.00,41.00 -32.91,22.00" fill="#ffffff"/>
  <polygon points="-38.11,25.00 -5.20,44.00 -38.11,63.00 -71.01,44.00" fill="#ffffff"/>
  <polygon points="-76.21,47.00 -43.30,66.00 -76.21,85.00 -109.12,66.00" fill="#ffffff"/>
  <polygon points="38.11,25.00 71.01,44.00 38.11,63.00 5.20,44.00" fill="#ffffff"/>
  <polygon points="0.00,47.00 32.91,66.00 0.00,85.00 -32.91,66.00" fill="#ffffff"/>
  <polygon points="-38.11,69.00 -5.20,88.00 -38.11,107.00 -71.01,88.00" fill="#ffffff"/>
  <polygon points="76.21,47.00 109.12,66.00 76.21,85.00 43.30,66.00" fill="#ffffff"/>
  <polygon points="38.11,69.00 71.01,88.00 38.11,107.00 5.20,88.00" fill="#ffffff"/>
  <polygon points="0.00,91.00 32.91,110.00 0.00,129.00 -32.91,110.00" fill="#ffffff"/>
  <polygon points="-114.32,66.00 0.00,132.00 0.00,264.00 -114.32,198.00" fill="#0a0a0a"/>
  <polygon points="-111.72,70.50 -78.81,89.50 -78.81,127.50 -111.72,108.50" fill="#009b48"/>
  <polygon points="-111.72,114.50 -78.81,133.50 -78.81,171.50 -111.72,152.50" fill="#009b48"/>
  <polygon points="-111.72,158.50 -78.81,177.50 -78.81,215.50 -111.72,196.50" fill="#009b48"/>
  <polygon points="-73.61,92.50 -40.70,111.50 -40.70,149.50 -73.61,130.50" fill="#009b48"/>
  <polygon points="-73.61,136.50 -40.70,155.50 -40.70,193.50 -73.61,174.50" fill="#009b48"/>
  <polygon points="-73.61,180.50 -40.70,199.50 -40.70,237.50 -73.61,218.50" fill="#009b48"/>
  <polygon points="-35.51,114.50 -2.60,133.50 -2.60,171.50 -35.51,152.50" fill="#009b48"/>
  <polygon points="-35.51,158.50 -2.60,177.50 -2.60,215.50 -35.51,196.50" fill="#009b48"/>
  <polygon points="-35.51,202.50 -2.60,221.50 -2.60,259.50 -35.51,240.50" fill="#009b48"/>
  <polygon points="114.32,66.00 0.00,132.00 0.00,264.00 114.32,198.00" fill="#0a0a0a"/>
  <polygon points="111.72,70.50 78.81,89.50 78.81,127.50 111.72,108.50" fill="#b71234"/>
  <polygon points="111.72,114.50 78.81,133.50 78.81,171.50 111.72,152.50" fill="#b71234"/>
  <polygon points="111.72,158.50 78.81,177.50 78.81,215.50 111.72,196.50" fill="#b71234"/>
  <polygon points="73.61,92.50 40.70,111.50 40.70,149.50 73.61,130.50" fill="#b71234"/>
  <polygon points="73.61,136.50 40.70,155.50 40.70,193.50 73.61,174.50" fill="#b71234"/>
  <polygon points="73.61,180.50 40.70,199.50 40.70,237.50 73.61,218.50" fill="#b71234"/>
  <polygon points="35.51,114.50 2.60,133.50 2.60,171.50 35.51,152.50" fill="#b71234"/>
  <polygon points="35.51,158.50 2.60,177.50 2.60,215.50 35.51,196.50" fill="#b71234"/>
  <polygon points="35.51,202.50 2.60,221.50 2.60,259.50 35.51,240.50" fill="#b71234"/>
</svg>
